<mxfile host="app.diagrams.net" modified="2022-07-28T05:30:30.778Z" agent="5.0 (Windows)" etag="nCSjJeU121xnS4TZbKaa" version="17.4.6" type="github" pages="2">
  <diagram id="ozLwA-AvZQ6vu8N19rIq" name="Page-1">
    <mxGraphModel dx="865" dy="3470" grid="1" gridSize="10" guides="1" tooltips="1" connect="1" arrows="1" fold="1" page="1" pageScale="1" pageWidth="12000" pageHeight="3000" math="1" shadow="0">
      <root>
        <mxCell id="0" />
        <mxCell id="1" parent="0" />
        <mxCell id="oRC9dTE6LDyDf9o5q6Tj-16" style="edgeStyle=orthogonalEdgeStyle;rounded=0;orthogonalLoop=1;jettySize=auto;html=1;exitX=0.5;exitY=0;exitDx=0;exitDy=0;entryX=0.5;entryY=1;entryDx=0;entryDy=0;fontFamily=Verdana;fontSize=24;" edge="1" parent="1" source="oRC9dTE6LDyDf9o5q6Tj-3" target="oRC9dTE6LDyDf9o5q6Tj-15">
          <mxGeometry relative="1" as="geometry" />
        </mxCell>
        <mxCell id="oRC9dTE6LDyDf9o5q6Tj-3" value="&lt;font style=&quot;font-size: 18px&quot; face=&quot;Verdana&quot;&gt;Embedding Layer&lt;br&gt;&lt;/font&gt;" style="rounded=1;whiteSpace=wrap;html=1;fillColor=#f8cecc;strokeColor=#b85450;" vertex="1" parent="1">
          <mxGeometry x="360" y="320" width="280" height="40" as="geometry" />
        </mxCell>
        <mxCell id="oRC9dTE6LDyDf9o5q6Tj-17" style="edgeStyle=orthogonalEdgeStyle;rounded=0;orthogonalLoop=1;jettySize=auto;html=1;exitX=1;exitY=0.5;exitDx=0;exitDy=0;entryX=0;entryY=0.5;entryDx=0;entryDy=0;fontFamily=Verdana;fontSize=24;" edge="1" parent="1" source="oRC9dTE6LDyDf9o5q6Tj-4" target="oRC9dTE6LDyDf9o5q6Tj-15">
          <mxGeometry relative="1" as="geometry" />
        </mxCell>
        <mxCell id="oRC9dTE6LDyDf9o5q6Tj-4" value="&lt;font style=&quot;font-size: 18px&quot; face=&quot;Verdana&quot;&gt;Positional Embedding&lt;/font&gt;" style="rounded=1;whiteSpace=wrap;html=1;" vertex="1" parent="1">
          <mxGeometry x="340" y="260" width="120" height="40" as="geometry" />
        </mxCell>
        <mxCell id="oRC9dTE6LDyDf9o5q6Tj-5" value="&lt;p style=&quot;line-height: 1.2&quot;&gt;&lt;br&gt;&lt;/p&gt;" style="rounded=1;whiteSpace=wrap;html=1;arcSize=4;fillColor=#eeeeee;strokeColor=#36393d;" vertex="1" parent="1">
          <mxGeometry x="360" y="-60" width="280" height="300" as="geometry" />
        </mxCell>
        <mxCell id="oRC9dTE6LDyDf9o5q6Tj-21" value="" style="edgeStyle=orthogonalEdgeStyle;rounded=0;orthogonalLoop=1;jettySize=auto;html=1;fontFamily=Verdana;fontSize=24;" edge="1" parent="1" source="oRC9dTE6LDyDf9o5q6Tj-6" target="oRC9dTE6LDyDf9o5q6Tj-7">
          <mxGeometry relative="1" as="geometry" />
        </mxCell>
        <mxCell id="oRC9dTE6LDyDf9o5q6Tj-6" value="&lt;font style=&quot;font-size: 18px&quot; face=&quot;Verdana&quot;&gt;Multi-Head Attention&lt;/font&gt;" style="rounded=1;whiteSpace=wrap;html=1;fillColor=#ffe6cc;strokeColor=#d79b00;" vertex="1" parent="1">
          <mxGeometry x="400" y="160" width="200" height="40" as="geometry" />
        </mxCell>
        <mxCell id="oRC9dTE6LDyDf9o5q6Tj-22" value="" style="edgeStyle=orthogonalEdgeStyle;rounded=0;orthogonalLoop=1;jettySize=auto;html=1;fontFamily=Verdana;fontSize=24;" edge="1" parent="1" source="oRC9dTE6LDyDf9o5q6Tj-7" target="oRC9dTE6LDyDf9o5q6Tj-9">
          <mxGeometry relative="1" as="geometry" />
        </mxCell>
        <mxCell id="oRC9dTE6LDyDf9o5q6Tj-7" value="&lt;font style=&quot;font-size: 18px&quot; face=&quot;Verdana&quot;&gt;Add &amp;amp; Normalize&lt;/font&gt;" style="rounded=1;whiteSpace=wrap;html=1;fillColor=#fff2cc;strokeColor=#d6b656;" vertex="1" parent="1">
          <mxGeometry x="400" y="100" width="200" height="40" as="geometry" />
        </mxCell>
        <mxCell id="oRC9dTE6LDyDf9o5q6Tj-8" value="&lt;font style=&quot;font-size: 18px&quot; face=&quot;Verdana&quot;&gt;Add &amp;amp; Normalize&lt;/font&gt;" style="rounded=1;whiteSpace=wrap;html=1;fillColor=#fff2cc;strokeColor=#d6b656;" vertex="1" parent="1">
          <mxGeometry x="400" y="-40" width="200" height="40" as="geometry" />
        </mxCell>
        <mxCell id="oRC9dTE6LDyDf9o5q6Tj-23" value="" style="edgeStyle=orthogonalEdgeStyle;rounded=0;orthogonalLoop=1;jettySize=auto;html=1;fontFamily=Verdana;fontSize=24;" edge="1" parent="1" source="oRC9dTE6LDyDf9o5q6Tj-9" target="oRC9dTE6LDyDf9o5q6Tj-8">
          <mxGeometry relative="1" as="geometry" />
        </mxCell>
        <mxCell id="oRC9dTE6LDyDf9o5q6Tj-9" value="&lt;font style=&quot;font-size: 18px&quot; face=&quot;Verdana&quot;&gt;FFN&lt;/font&gt;" style="rounded=1;whiteSpace=wrap;html=1;fillColor=#dae8fc;strokeColor=#6c8ebf;" vertex="1" parent="1">
          <mxGeometry x="400" y="20" width="200" height="40" as="geometry" />
        </mxCell>
        <mxCell id="oRC9dTE6LDyDf9o5q6Tj-12" value="" style="edgeStyle=orthogonalEdgeStyle;rounded=0;orthogonalLoop=1;jettySize=auto;html=1;fontFamily=Verdana;fontSize=18;" edge="1" parent="1" source="oRC9dTE6LDyDf9o5q6Tj-10" target="oRC9dTE6LDyDf9o5q6Tj-3">
          <mxGeometry relative="1" as="geometry" />
        </mxCell>
        <mxCell id="oRC9dTE6LDyDf9o5q6Tj-10" value="&lt;font size=&quot;3&quot;&gt;$$\cdots$$&lt;/font&gt;" style="rounded=1;whiteSpace=wrap;html=1;fillColor=#e1d5e7;strokeColor=#9673a6;" vertex="1" parent="1">
          <mxGeometry x="360" y="380" width="280" height="60" as="geometry" />
        </mxCell>
        <mxCell id="oRC9dTE6LDyDf9o5q6Tj-1" value="&lt;font style=&quot;font-size: 18px&quot; face=&quot;Verdana&quot;&gt;token\(_1\)&lt;/font&gt;" style="rounded=1;whiteSpace=wrap;html=1;" vertex="1" parent="1">
          <mxGeometry x="370" y="390" width="80" height="40" as="geometry" />
        </mxCell>
        <mxCell id="oRC9dTE6LDyDf9o5q6Tj-2" value="&lt;font style=&quot;font-size: 18px&quot; face=&quot;Verdana&quot;&gt;token\(_N\)&lt;/font&gt;" style="rounded=1;whiteSpace=wrap;html=1;" vertex="1" parent="1">
          <mxGeometry x="550" y="390" width="80" height="40" as="geometry" />
        </mxCell>
        <mxCell id="oRC9dTE6LDyDf9o5q6Tj-18" style="edgeStyle=orthogonalEdgeStyle;rounded=0;orthogonalLoop=1;jettySize=auto;html=1;exitX=0.5;exitY=0;exitDx=0;exitDy=0;entryX=0.5;entryY=1;entryDx=0;entryDy=0;fontFamily=Verdana;fontSize=24;" edge="1" parent="1" source="oRC9dTE6LDyDf9o5q6Tj-15" target="oRC9dTE6LDyDf9o5q6Tj-6">
          <mxGeometry relative="1" as="geometry" />
        </mxCell>
        <mxCell id="oRC9dTE6LDyDf9o5q6Tj-15" value="$$+$$" style="ellipse;whiteSpace=wrap;html=1;aspect=fixed;fontFamily=Verdana;fontSize=18;" vertex="1" parent="1">
          <mxGeometry x="480" y="260" width="40" height="40" as="geometry" />
        </mxCell>
        <mxCell id="oRC9dTE6LDyDf9o5q6Tj-20" value="" style="endArrow=classic;html=1;rounded=0;fontFamily=Verdana;fontSize=24;edgeStyle=orthogonalEdgeStyle;entryX=1;entryY=0.5;entryDx=0;entryDy=0;" edge="1" parent="1" target="oRC9dTE6LDyDf9o5q6Tj-7">
          <mxGeometry width="50" height="50" relative="1" as="geometry">
            <mxPoint x="500" y="220" as="sourcePoint" />
            <mxPoint x="550" y="170" as="targetPoint" />
            <Array as="points">
              <mxPoint x="620" y="220" />
              <mxPoint x="620" y="120" />
            </Array>
          </mxGeometry>
        </mxCell>
        <mxCell id="oRC9dTE6LDyDf9o5q6Tj-24" value="" style="endArrow=classic;html=1;rounded=0;fontFamily=Verdana;fontSize=24;edgeStyle=orthogonalEdgeStyle;entryX=1;entryY=0.5;entryDx=0;entryDy=0;" edge="1" parent="1" target="oRC9dTE6LDyDf9o5q6Tj-8">
          <mxGeometry width="50" height="50" relative="1" as="geometry">
            <mxPoint x="500" y="60" as="sourcePoint" />
            <mxPoint x="600" y="-60" as="targetPoint" />
            <Array as="points">
              <mxPoint x="500" y="80" />
              <mxPoint x="620" y="80" />
              <mxPoint x="620" y="-20" />
            </Array>
          </mxGeometry>
        </mxCell>
        <mxCell id="oRC9dTE6LDyDf9o5q6Tj-25" value="&lt;font style=&quot;font-size: 18px&quot; face=&quot;Verdana&quot;&gt;Pooling Layer &amp;amp; Tanh&lt;br&gt;&lt;/font&gt;" style="rounded=1;whiteSpace=wrap;html=1;fillColor=#d5e8d4;strokeColor=#82b366;" vertex="1" parent="1">
          <mxGeometry x="360" y="-120" width="280" height="40" as="geometry" />
        </mxCell>
        <mxCell id="oRC9dTE6LDyDf9o5q6Tj-36" value="" style="edgeStyle=orthogonalEdgeStyle;rounded=0;orthogonalLoop=1;jettySize=auto;html=1;fontFamily=Verdana;fontSize=24;" edge="1" parent="1" source="oRC9dTE6LDyDf9o5q6Tj-26" target="oRC9dTE6LDyDf9o5q6Tj-27">
          <mxGeometry relative="1" as="geometry" />
        </mxCell>
        <mxCell id="oRC9dTE6LDyDf9o5q6Tj-26" value="&lt;font style=&quot;font-size: 18px&quot; face=&quot;Verdana&quot;&gt;Classifier&lt;br&gt;&lt;/font&gt;" style="rounded=1;whiteSpace=wrap;html=1;fillColor=#cce5ff;strokeColor=#36393d;" vertex="1" parent="1">
          <mxGeometry x="360" y="-180" width="280" height="40" as="geometry" />
        </mxCell>
        <mxCell id="oRC9dTE6LDyDf9o5q6Tj-27" value="&lt;font style=&quot;font-size: 18px&quot; face=&quot;Verdana&quot;&gt;Class label&lt;br&gt;&lt;/font&gt;" style="rounded=1;whiteSpace=wrap;html=1;fillColor=#d0cee2;strokeColor=#56517e;" vertex="1" parent="1">
          <mxGeometry x="440" y="-240" width="120" height="40" as="geometry" />
        </mxCell>
        <mxCell id="oRC9dTE6LDyDf9o5q6Tj-34" value="" style="endArrow=classic;html=1;rounded=0;fontFamily=Verdana;fontSize=24;exitX=0.5;exitY=0;exitDx=0;exitDy=0;entryX=0.5;entryY=1;entryDx=0;entryDy=0;" edge="1" parent="1" source="oRC9dTE6LDyDf9o5q6Tj-8" target="oRC9dTE6LDyDf9o5q6Tj-25">
          <mxGeometry width="50" height="50" relative="1" as="geometry">
            <mxPoint x="760" y="-60" as="sourcePoint" />
            <mxPoint x="810" y="-110" as="targetPoint" />
          </mxGeometry>
        </mxCell>
        <mxCell id="oRC9dTE6LDyDf9o5q6Tj-35" value="" style="endArrow=classic;html=1;rounded=0;fontFamily=Verdana;fontSize=24;exitX=0.5;exitY=0;exitDx=0;exitDy=0;entryX=0.5;entryY=1;entryDx=0;entryDy=0;" edge="1" parent="1" source="oRC9dTE6LDyDf9o5q6Tj-25" target="oRC9dTE6LDyDf9o5q6Tj-26">
          <mxGeometry width="50" height="50" relative="1" as="geometry">
            <mxPoint x="780" y="-60" as="sourcePoint" />
            <mxPoint x="830" y="-110" as="targetPoint" />
          </mxGeometry>
        </mxCell>
        <mxCell id="oRC9dTE6LDyDf9o5q6Tj-37" value="&lt;font style=&quot;font-size: 18px&quot; face=&quot;Verdana&quot;&gt;M \(\times\)&lt;br&gt;&lt;/font&gt;" style="rounded=1;whiteSpace=wrap;html=1;strokeColor=none;" vertex="1" parent="1">
          <mxGeometry x="300" y="70" width="50" height="40" as="geometry" />
        </mxCell>
        <mxCell id="oRC9dTE6LDyDf9o5q6Tj-38" value="&lt;font style=&quot;font-size: 18px&quot; face=&quot;Verdana&quot;&gt;Input&lt;br&gt;&lt;/font&gt;" style="rounded=1;whiteSpace=wrap;html=1;strokeColor=none;" vertex="1" parent="1">
          <mxGeometry x="290" y="390" width="50" height="40" as="geometry" />
        </mxCell>
      </root>
    </mxGraphModel>
  </diagram>
  <diagram id="c_eSjaEkn9HcbY5Ue6n5" name="Page-2">
    <mxGraphModel dx="2595" dy="1410" grid="1" gridSize="10" guides="1" tooltips="1" connect="1" arrows="1" fold="1" page="1" pageScale="1" pageWidth="827" pageHeight="583" math="1" shadow="0">
      <root>
        <mxCell id="0" />
        <mxCell id="1" parent="0" />
        <mxCell id="Znv9hdOkKZ1liaSQSUzs-29" value="" style="group;rotation=90;" vertex="1" connectable="0" parent="1">
          <mxGeometry x="235" y="-120" width="350" height="760" as="geometry" />
        </mxCell>
        <mxCell id="Znv9hdOkKZ1liaSQSUzs-2" value="&lt;font style=&quot;font-size: 18px&quot; face=&quot;Verdana&quot;&gt;Embedding Layer&lt;br&gt;&lt;/font&gt;" style="rounded=1;whiteSpace=wrap;html=1;fillColor=#f8cecc;strokeColor=#b85450;rotation=90;" vertex="1" parent="Znv9hdOkKZ1liaSQSUzs-29">
          <mxGeometry x="-205" y="395" width="280" height="40" as="geometry" />
        </mxCell>
        <mxCell id="Znv9hdOkKZ1liaSQSUzs-4" value="&lt;font style=&quot;font-size: 18px&quot; face=&quot;Verdana&quot;&gt;Positional Embedding&lt;/font&gt;" style="rounded=1;whiteSpace=wrap;html=1;rotation=90;" vertex="1" parent="Znv9hdOkKZ1liaSQSUzs-29">
          <mxGeometry x="-65" y="295" width="120" height="40" as="geometry" />
        </mxCell>
        <mxCell id="Znv9hdOkKZ1liaSQSUzs-5" value="&lt;p style=&quot;line-height: 1.2&quot;&gt;&lt;br&gt;&lt;/p&gt;" style="rounded=1;whiteSpace=wrap;html=1;arcSize=4;fillColor=#eeeeee;strokeColor=#36393d;rotation=90;" vertex="1" parent="Znv9hdOkKZ1liaSQSUzs-29">
          <mxGeometry x="45" y="265" width="280" height="300" as="geometry" />
        </mxCell>
        <mxCell id="Znv9hdOkKZ1liaSQSUzs-7" value="&lt;font style=&quot;font-size: 18px&quot; face=&quot;Verdana&quot;&gt;Multi-Head Attention&lt;/font&gt;" style="rounded=1;whiteSpace=wrap;html=1;fillColor=#ffe6cc;strokeColor=#d79b00;rotation=90;" vertex="1" parent="Znv9hdOkKZ1liaSQSUzs-29">
          <mxGeometry x="-5" y="395" width="200" height="40" as="geometry" />
        </mxCell>
        <mxCell id="Znv9hdOkKZ1liaSQSUzs-9" value="&lt;font style=&quot;font-size: 18px&quot; face=&quot;Verdana&quot;&gt;Add &amp;amp; Normalize&lt;/font&gt;" style="rounded=1;whiteSpace=wrap;html=1;fillColor=#fff2cc;strokeColor=#d6b656;rotation=90;" vertex="1" parent="Znv9hdOkKZ1liaSQSUzs-29">
          <mxGeometry x="55" y="395" width="200" height="40" as="geometry" />
        </mxCell>
        <mxCell id="Znv9hdOkKZ1liaSQSUzs-6" value="" style="edgeStyle=orthogonalEdgeStyle;rounded=0;orthogonalLoop=1;jettySize=auto;html=1;fontFamily=Verdana;fontSize=24;" edge="1" parent="Znv9hdOkKZ1liaSQSUzs-29" source="Znv9hdOkKZ1liaSQSUzs-7" target="Znv9hdOkKZ1liaSQSUzs-9">
          <mxGeometry relative="1" as="geometry" />
        </mxCell>
        <mxCell id="Znv9hdOkKZ1liaSQSUzs-10" value="&lt;font style=&quot;font-size: 18px&quot; face=&quot;Verdana&quot;&gt;Add &amp;amp; Normalize&lt;/font&gt;" style="rounded=1;whiteSpace=wrap;html=1;fillColor=#fff2cc;strokeColor=#d6b656;rotation=90;" vertex="1" parent="Znv9hdOkKZ1liaSQSUzs-29">
          <mxGeometry x="195" y="395" width="200" height="40" as="geometry" />
        </mxCell>
        <mxCell id="Znv9hdOkKZ1liaSQSUzs-11" value="" style="edgeStyle=orthogonalEdgeStyle;rounded=0;orthogonalLoop=1;jettySize=auto;html=1;fontFamily=Verdana;fontSize=24;" edge="1" parent="Znv9hdOkKZ1liaSQSUzs-29" source="Znv9hdOkKZ1liaSQSUzs-12" target="Znv9hdOkKZ1liaSQSUzs-10">
          <mxGeometry relative="1" as="geometry" />
        </mxCell>
        <mxCell id="Znv9hdOkKZ1liaSQSUzs-12" value="&lt;font style=&quot;font-size: 18px&quot; face=&quot;Verdana&quot;&gt;FFN&lt;/font&gt;" style="rounded=1;whiteSpace=wrap;html=1;fillColor=#dae8fc;strokeColor=#6c8ebf;rotation=90;" vertex="1" parent="Znv9hdOkKZ1liaSQSUzs-29">
          <mxGeometry x="135" y="395" width="200" height="40" as="geometry" />
        </mxCell>
        <mxCell id="Znv9hdOkKZ1liaSQSUzs-8" value="" style="edgeStyle=orthogonalEdgeStyle;rounded=0;orthogonalLoop=1;jettySize=auto;html=1;fontFamily=Verdana;fontSize=24;" edge="1" parent="Znv9hdOkKZ1liaSQSUzs-29" source="Znv9hdOkKZ1liaSQSUzs-9" target="Znv9hdOkKZ1liaSQSUzs-12">
          <mxGeometry relative="1" as="geometry" />
        </mxCell>
        <mxCell id="Znv9hdOkKZ1liaSQSUzs-13" value="" style="edgeStyle=orthogonalEdgeStyle;rounded=0;orthogonalLoop=1;jettySize=auto;html=1;fontFamily=Verdana;fontSize=18;" edge="1" parent="Znv9hdOkKZ1liaSQSUzs-29" source="Znv9hdOkKZ1liaSQSUzs-14" target="Znv9hdOkKZ1liaSQSUzs-2">
          <mxGeometry relative="1" as="geometry" />
        </mxCell>
        <mxCell id="Znv9hdOkKZ1liaSQSUzs-14" value="&lt;font size=&quot;3&quot;&gt;$$\cdots$$&lt;/font&gt;" style="rounded=1;whiteSpace=wrap;html=1;fillColor=#e1d5e7;strokeColor=#9673a6;rotation=90;" vertex="1" parent="Znv9hdOkKZ1liaSQSUzs-29">
          <mxGeometry x="-295" y="365" width="280" height="100" as="geometry" />
        </mxCell>
        <mxCell id="Znv9hdOkKZ1liaSQSUzs-15" value="&lt;font style=&quot;font-size: 18px&quot; face=&quot;Verdana&quot;&gt;token\(_1\)&lt;/font&gt;" style="rounded=1;whiteSpace=wrap;html=1;horizontal=0;rotation=90;" vertex="1" parent="Znv9hdOkKZ1liaSQSUzs-29">
          <mxGeometry x="-175" y="265" width="40" height="80" as="geometry" />
        </mxCell>
        <mxCell id="Znv9hdOkKZ1liaSQSUzs-16" value="&lt;font style=&quot;font-size: 18px&quot; face=&quot;Verdana&quot;&gt;token\(_N\)&lt;/font&gt;" style="rounded=1;whiteSpace=wrap;html=1;horizontal=0;rotation=90;" vertex="1" parent="Znv9hdOkKZ1liaSQSUzs-29">
          <mxGeometry x="-175" y="485" width="40" height="80" as="geometry" />
        </mxCell>
        <mxCell id="Znv9hdOkKZ1liaSQSUzs-17" style="edgeStyle=orthogonalEdgeStyle;rounded=0;orthogonalLoop=1;jettySize=auto;html=1;exitX=0.5;exitY=0;exitDx=0;exitDy=0;entryX=0.5;entryY=1;entryDx=0;entryDy=0;fontFamily=Verdana;fontSize=24;" edge="1" parent="Znv9hdOkKZ1liaSQSUzs-29" source="Znv9hdOkKZ1liaSQSUzs-18" target="Znv9hdOkKZ1liaSQSUzs-7">
          <mxGeometry relative="1" as="geometry" />
        </mxCell>
        <mxCell id="Znv9hdOkKZ1liaSQSUzs-18" value="$$+$$" style="ellipse;whiteSpace=wrap;html=1;aspect=fixed;fontFamily=Verdana;fontSize=18;rotation=90;" vertex="1" parent="Znv9hdOkKZ1liaSQSUzs-29">
          <mxGeometry x="-25" y="395" width="40" height="40" as="geometry" />
        </mxCell>
        <mxCell id="Znv9hdOkKZ1liaSQSUzs-1" style="edgeStyle=orthogonalEdgeStyle;rounded=0;orthogonalLoop=1;jettySize=auto;html=1;exitX=0.5;exitY=0;exitDx=0;exitDy=0;entryX=0.5;entryY=1;entryDx=0;entryDy=0;fontFamily=Verdana;fontSize=24;" edge="1" parent="Znv9hdOkKZ1liaSQSUzs-29" source="Znv9hdOkKZ1liaSQSUzs-2" target="Znv9hdOkKZ1liaSQSUzs-18">
          <mxGeometry relative="1" as="geometry" />
        </mxCell>
        <mxCell id="Znv9hdOkKZ1liaSQSUzs-3" style="edgeStyle=orthogonalEdgeStyle;rounded=0;orthogonalLoop=1;jettySize=auto;html=1;exitX=1;exitY=0.5;exitDx=0;exitDy=0;entryX=0;entryY=0.5;entryDx=0;entryDy=0;fontFamily=Verdana;fontSize=24;" edge="1" parent="Znv9hdOkKZ1liaSQSUzs-29" source="Znv9hdOkKZ1liaSQSUzs-4" target="Znv9hdOkKZ1liaSQSUzs-18">
          <mxGeometry relative="1" as="geometry" />
        </mxCell>
        <mxCell id="Znv9hdOkKZ1liaSQSUzs-19" value="" style="endArrow=classic;html=1;rounded=0;fontFamily=Verdana;fontSize=24;edgeStyle=orthogonalEdgeStyle;entryX=1;entryY=0.5;entryDx=0;entryDy=0;" edge="1" parent="Znv9hdOkKZ1liaSQSUzs-29" target="Znv9hdOkKZ1liaSQSUzs-9">
          <mxGeometry width="50" height="50" relative="1" as="geometry">
            <mxPoint x="55" y="415" as="sourcePoint" />
            <mxPoint x="105" y="465" as="targetPoint" />
            <Array as="points">
              <mxPoint x="55" y="535" />
              <mxPoint x="155" y="535" />
            </Array>
          </mxGeometry>
        </mxCell>
        <mxCell id="Znv9hdOkKZ1liaSQSUzs-20" value="" style="endArrow=classic;html=1;rounded=0;fontFamily=Verdana;fontSize=24;edgeStyle=orthogonalEdgeStyle;entryX=1;entryY=0.5;entryDx=0;entryDy=0;" edge="1" parent="Znv9hdOkKZ1liaSQSUzs-29" target="Znv9hdOkKZ1liaSQSUzs-10">
          <mxGeometry width="50" height="50" relative="1" as="geometry">
            <mxPoint x="215" y="415" as="sourcePoint" />
            <mxPoint x="335" y="515" as="targetPoint" />
            <Array as="points">
              <mxPoint x="195" y="415" />
              <mxPoint x="195" y="535" />
              <mxPoint x="295" y="535" />
            </Array>
          </mxGeometry>
        </mxCell>
        <mxCell id="Znv9hdOkKZ1liaSQSUzs-21" value="&lt;font style=&quot;font-size: 18px&quot; face=&quot;Verdana&quot;&gt;Pooling Layer &amp;amp; Tanh&lt;br&gt;&lt;/font&gt;" style="rounded=1;whiteSpace=wrap;html=1;fillColor=#d5e8d4;strokeColor=#82b366;rotation=90;" vertex="1" parent="Znv9hdOkKZ1liaSQSUzs-29">
          <mxGeometry x="235" y="395" width="280" height="40" as="geometry" />
        </mxCell>
        <mxCell id="Znv9hdOkKZ1liaSQSUzs-23" value="&lt;font style=&quot;font-size: 18px&quot; face=&quot;Verdana&quot;&gt;Classifier&lt;br&gt;&lt;/font&gt;" style="rounded=1;whiteSpace=wrap;html=1;fillColor=#cce5ff;strokeColor=#36393d;rotation=90;" vertex="1" parent="Znv9hdOkKZ1liaSQSUzs-29">
          <mxGeometry x="295" y="395" width="280" height="40" as="geometry" />
        </mxCell>
        <mxCell id="Znv9hdOkKZ1liaSQSUzs-24" value="&lt;font style=&quot;font-size: 18px&quot; face=&quot;Verdana&quot;&gt;Class label&lt;br&gt;&lt;/font&gt;" style="rounded=1;whiteSpace=wrap;html=1;fillColor=#d0cee2;strokeColor=#56517e;horizontal=0;rotation=90;" vertex="1" parent="Znv9hdOkKZ1liaSQSUzs-29">
          <mxGeometry x="485" y="375" width="60" height="80" as="geometry" />
        </mxCell>
        <mxCell id="Znv9hdOkKZ1liaSQSUzs-25" value="" style="endArrow=classic;html=1;rounded=0;fontFamily=Verdana;fontSize=24;exitX=0.5;exitY=0;exitDx=0;exitDy=0;entryX=0.5;entryY=1;entryDx=0;entryDy=0;" edge="1" parent="Znv9hdOkKZ1liaSQSUzs-29" source="Znv9hdOkKZ1liaSQSUzs-10" target="Znv9hdOkKZ1liaSQSUzs-21">
          <mxGeometry width="50" height="50" relative="1" as="geometry">
            <mxPoint x="335" y="675" as="sourcePoint" />
            <mxPoint x="385" y="725" as="targetPoint" />
          </mxGeometry>
        </mxCell>
        <mxCell id="Znv9hdOkKZ1liaSQSUzs-22" value="" style="edgeStyle=orthogonalEdgeStyle;rounded=0;orthogonalLoop=1;jettySize=auto;html=1;fontFamily=Verdana;fontSize=24;" edge="1" parent="Znv9hdOkKZ1liaSQSUzs-29" source="Znv9hdOkKZ1liaSQSUzs-23" target="Znv9hdOkKZ1liaSQSUzs-24">
          <mxGeometry relative="1" as="geometry" />
        </mxCell>
        <mxCell id="Znv9hdOkKZ1liaSQSUzs-26" value="" style="endArrow=classic;html=1;rounded=0;fontFamily=Verdana;fontSize=24;exitX=0.5;exitY=0;exitDx=0;exitDy=0;entryX=0.5;entryY=1;entryDx=0;entryDy=0;" edge="1" parent="Znv9hdOkKZ1liaSQSUzs-29" source="Znv9hdOkKZ1liaSQSUzs-21" target="Znv9hdOkKZ1liaSQSUzs-23">
          <mxGeometry width="50" height="50" relative="1" as="geometry">
            <mxPoint x="335" y="695" as="sourcePoint" />
            <mxPoint x="385" y="745" as="targetPoint" />
          </mxGeometry>
        </mxCell>
        <mxCell id="Znv9hdOkKZ1liaSQSUzs-27" value="&lt;font style=&quot;font-size: 18px&quot; face=&quot;Verdana&quot;&gt;M \(\times\)&lt;br&gt;&lt;/font&gt;" style="rounded=1;whiteSpace=wrap;html=1;strokeColor=none;horizontal=0;rotation=90;" vertex="1" parent="Znv9hdOkKZ1liaSQSUzs-29">
          <mxGeometry x="160" y="210" width="50" height="60" as="geometry" />
        </mxCell>
        <mxCell id="Znv9hdOkKZ1liaSQSUzs-28" value="&lt;font style=&quot;font-size: 18px&quot; face=&quot;Verdana&quot;&gt;Input&lt;br&gt;&lt;/font&gt;" style="rounded=1;whiteSpace=wrap;html=1;strokeColor=none;horizontal=0;rotation=90;" vertex="1" parent="Znv9hdOkKZ1liaSQSUzs-29">
          <mxGeometry x="-170" y="200" width="30" height="80" as="geometry" />
        </mxCell>
      </root>
    </mxGraphModel>
  </diagram>
</mxfile>
